<svg width="60" height="60" viewBox="0 0 60 60" fill="none" xmlns="http://www.w3.org/2000/svg">
<path d="M9.67962 14.6888L17.6613 6.70711C18.0518 6.31658 18.685 6.31658 19.0755 6.70711L27.5561 15.1876C27.9466 15.5782 27.9466 16.2113 27.5561 16.6018L21.8614 22.2965C21.2527 22.9052 21.1018 23.8351 21.4868 24.6051L22.3608 26.3533C24.5864 30.8044 28.1956 34.4136 32.6467 36.6392L34.3949 37.5132C35.1649 37.8982 36.0948 37.7473 36.7035 37.1386L42.3982 31.444C42.7887 31.0534 43.4218 31.0534 43.8124 31.4439L52.2929 39.9245C52.6834 40.315 52.6834 40.9482 52.2929 41.3387L44.3112 49.3204C42.1999 51.4317 38.8573 51.6693 36.4686 49.8777L23.4707 40.1293C21.7271 38.8217 20.1783 37.2729 18.8707 35.5293L9.12226 22.5314C7.33072 20.1427 7.56827 16.8001 9.67962 14.6888Z" fill="white"/>
</svg>
